<?xml version="1.0" encoding="utf-8"?>
<!-- Generator: Adobe Illustrator 23.0.1, SVG Export Plug-In . SVG Version: 6.00 Build 0)  -->
<svg version="1.1" id="Calque_1" xmlns="http://www.w3.org/2000/svg" xmlns:xlink="http://www.w3.org/1999/xlink" x="0px" y="0px"
	 viewBox="0 0 595.28 841.89" style="enable-background:new 0 0 595.28 841.89;" xml:space="preserve">
<style type="text/css">
	.st0{fill:#FFFFFF;}
</style>
<path class="st0" d="M280.02,595.72c-2.41,0-4.36-1.96-4.36-4.36s1.96-4.36,4.36-4.36h33.17l-0.01-14.06l-33.17,0
	c-1.15,0-2.27-0.47-3.09-1.28c-0.81-0.81-1.28-1.94-1.28-3.08v-22.8c0-1.17,0.45-2.26,1.28-3.09c0.81-0.81,1.94-1.28,3.08-1.28
	l37.53,0c2.41,0,4.37,1.96,4.37,4.37c0,2.41-1.96,4.36-4.37,4.36l-33.16,0v14.06h33.16c2.41,0,4.37,1.96,4.37,4.36l0,22.8
	c0,1.15-0.47,2.27-1.28,3.08c-0.82,0.83-1.92,1.28-3.09,1.28H280.02z M350.68,561.64c-1.81,0-3.45-1.14-4.08-2.83
	c-0.41-1.09-0.37-2.28,0.11-3.34c0.48-1.06,1.35-1.87,2.43-2.28c38.26-14.42,68.48-44.63,82.9-82.9c0.64-1.69,2.28-2.83,4.09-2.83
	c0.52,0,1.04,0.09,1.54,0.28c1.09,0.41,1.95,1.22,2.44,2.29c0.48,1.06,0.52,2.25,0.11,3.34c-15.31,40.62-47.38,72.69-87.99,87.99
	C351.72,561.54,351.21,561.64,350.68,561.64z M247.46,561.64c-0.52,0-1.04-0.09-1.53-0.28c-40.62-15.3-72.69-47.37-88-87.99
	c-0.41-1.09-0.37-2.28,0.11-3.34s1.35-1.88,2.44-2.29c0.49-0.19,1.01-0.28,1.53-0.28c1.81,0,3.45,1.14,4.09,2.83
	c14.42,38.27,44.63,68.48,82.9,82.9c1.09,0.41,1.96,1.22,2.44,2.28c0.48,1.06,0.52,2.25,0.11,3.34
	C250.91,560.5,249.27,561.64,247.46,561.64z M298.79,515.74c-1.66,0-3.16-0.92-3.9-2.4l-29.84-59.4l-59.4-29.84
	c-1.48-0.75-2.4-2.24-2.4-3.9c0-1.66,0.92-3.16,2.4-3.9l59.4-29.84l29.84-59.39c0.75-1.48,2.24-2.41,3.9-2.41s3.15,0.92,3.9,2.41
	l29.84,59.39l59.4,29.84c1.48,0.74,2.4,2.24,2.4,3.9c0,1.66-0.92,3.15-2.4,3.9l-59.39,29.84l-29.84,59.39
	C301.95,514.82,300.45,515.74,298.79,515.74z M272.59,390.89l-0.06,0.18c-0.22,0.64-0.59,1.23-1.06,1.69
	c-0.54,0.56-1.14,0.95-1.8,1.17l-0.18,0.06l-52.14,26.2l52.15,26.2l0.18,0.06c0.65,0.22,1.25,0.6,1.73,1.1
	c0.54,0.53,0.91,1.12,1.13,1.77l0.06,0.18l26.2,52.15l26.2-52.15l0.06-0.18c0.22-0.65,0.6-1.25,1.09-1.72
	c0.53-0.54,1.13-0.92,1.78-1.14l0.18-0.06l52.15-26.2L328.11,394l-0.18-0.06c-0.66-0.23-1.25-0.61-1.73-1.1
	c-0.55-0.54-0.92-1.12-1.14-1.76l-0.06-0.18l-26.2-52.15L272.59,390.89z M382.35,508.11c-0.47,0-0.93-0.07-1.36-0.22l-41.86-13.86
	c-1.11-0.37-2.01-1.14-2.53-2.18s-0.61-2.23-0.24-3.33c0.59-1.79,2.26-2.99,4.14-2.99c0.46,0,0.93,0.08,1.38,0.22l33.6,11.13
	l-11.13-33.6c-0.37-1.11-0.28-2.29,0.24-3.33s1.42-1.82,2.53-2.18c0.45-0.15,0.91-0.22,1.37-0.22c1.89,0,3.55,1.2,4.15,2.99
	l13.86,41.85c0.52,1.58,0.12,3.28-1.06,4.45C384.61,507.66,383.51,508.11,382.35,508.11z M215.23,508.11
	c-1.17,0-2.26-0.45-3.08-1.28c-1.18-1.17-1.58-2.88-1.06-4.46l13.86-41.85c0.59-1.79,2.26-2.99,4.15-2.99
	c0.46,0,0.93,0.08,1.38,0.22c2.28,0.76,3.53,3.23,2.77,5.52l-11.13,33.6l33.6-11.12c0.45-0.15,0.91-0.22,1.37-0.22
	c1.88,0,3.55,1.2,4.14,2.99c0.75,2.28-0.49,4.76-2.77,5.51l-41.84,13.86C216.17,508.04,215.71,508.11,215.23,508.11z M421.28,447.36
	c-2.41,0-4.36-1.96-4.36-4.36v-22.71l-0.01-0.09l0.01-0.17l0-22.61c0-1.17,0.45-2.26,1.28-3.09c0.82-0.82,1.92-1.28,3.08-1.28h46.31
	c2.41,0,4.36,1.96,4.36,4.36c0,2.41-1.96,4.37-4.36,4.37h-41.94v14.06h27.1c2.41,0,4.36,1.96,4.36,4.36s-1.96,4.36-4.36,4.36h-27.1
	v14.07h41.94c2.41,0,4.36,1.96,4.36,4.37c0,2.41-1.96,4.36-4.36,4.36H421.28z M140.67,446.48c-0.12,0-0.23,0-0.35-0.01
	c-1.79-0.15-3.29-1.35-3.81-3.07l-13.47-43.84c-0.34-1.11-0.23-2.3,0.31-3.33c0.55-1.03,1.46-1.79,2.57-2.13
	c0.42-0.13,0.85-0.19,1.29-0.19c1.93,0,3.6,1.24,4.17,3.08l10.25,33.36l7.55-15.24c0.74-1.5,2.24-2.43,3.91-2.43
	c1.67,0,3.17,0.93,3.91,2.43l7.55,15.24l10.25-33.36c0.57-1.84,2.24-3.08,4.17-3.08c0.43,0,0.87,0.07,1.29,0.19
	c2.3,0.71,3.59,3.15,2.89,5.45l-13.47,43.84c-0.53,1.72-2.03,2.92-3.82,3.07c-0.11,0.01-0.23,0.01-0.35,0.01
	c-1.65,0-3.18-0.95-3.91-2.43l-8.51-17.16l-8.5,17.16C143.84,445.55,142.34,446.48,140.67,446.48z M298.79,440.37
	c-11.13,0-20.18-9.05-20.18-20.17c0-11.12,9.05-20.17,20.18-20.17c11.12,0,20.17,9.05,20.17,20.17
	C318.97,431.32,309.92,440.37,298.79,440.37z M298.79,408.75c-6.31,0-11.44,5.13-11.44,11.44c0,6.31,5.13,11.44,11.44,11.44
	c6.31,0,11.44-5.13,11.44-11.44C310.23,413.88,305.1,408.75,298.79,408.75z M368.49,382.85c-0.47,0-0.93-0.07-1.37-0.22
	c-1.11-0.37-2.01-1.14-2.54-2.19s-0.61-2.23-0.24-3.33l11.13-33.6l-33.6,11.13c-0.45,0.15-0.91,0.22-1.38,0.22
	c-1.89,0-3.55-1.2-4.15-2.99c-0.37-1.11-0.28-2.29,0.24-3.33c0.52-1.04,1.42-1.82,2.53-2.18l41.84-13.86
	c0.44-0.15,0.9-0.22,1.37-0.22c1.17,0,2.26,0.45,3.09,1.28c1.17,1.17,1.58,2.88,1.06,4.46l-13.86,41.85
	C372.04,381.65,370.38,382.85,368.49,382.85z M229.09,382.85c-1.88,0-3.55-1.2-4.15-3l-13.85-41.84c-0.52-1.58-0.11-3.29,1.06-4.46
	c0.81-0.81,1.94-1.28,3.09-1.28c0.47,0,0.93,0.07,1.37,0.22l41.85,13.86c2.28,0.76,3.53,3.23,2.77,5.52
	c-0.59,1.79-2.26,2.99-4.14,2.99c0,0,0,0,0,0c-0.46,0-0.93-0.08-1.37-0.22l-33.6-11.13l11.13,33.6c0.76,2.28-0.49,4.76-2.77,5.52
	C230.02,382.78,229.56,382.85,229.09,382.85z M436.13,372.98c-1.81,0-3.45-1.14-4.09-2.83c-14.42-38.27-44.64-68.48-82.9-82.9
	c-2.25-0.85-3.39-3.37-2.55-5.63c0.64-1.69,2.28-2.83,4.09-2.83c0.52,0,1.04,0.1,1.54,0.28c40.61,15.3,72.69,47.37,87.99,87.99
	c0.85,2.25-0.3,4.78-2.55,5.63C437.17,372.89,436.65,372.98,436.13,372.98z M162.02,372.98c-0.52,0-1.04-0.1-1.55-0.29
	c-1.09-0.41-1.95-1.22-2.43-2.28c-0.48-1.06-0.52-2.25-0.11-3.34c15.31-40.62,47.38-72.69,87.99-87.99c0.5-0.19,1.02-0.28,1.54-0.28
	c1.81,0,3.45,1.14,4.09,2.83c0.85,2.25-0.3,4.78-2.55,5.63c-38.26,14.41-68.48,44.63-82.9,82.9
	C165.47,371.84,163.82,372.98,162.02,372.98z M321.59,299.42c-1.16,0-2.25-0.45-3.07-1.26l-38.15-37.63v34.52
	c0,2.41-1.96,4.37-4.36,4.37s-4.36-1.96-4.36-4.37v-44.96c0-1.76,1.05-3.34,2.68-4.02c0.54-0.23,1.1-0.34,1.68-0.34
	c1.15,0,2.24,0.45,3.07,1.26l38.15,37.63v-34.52c0-2.41,1.96-4.36,4.36-4.36c2.41,0,4.37,1.96,4.37,4.36v44.96
	c0,1.76-1.05,3.34-2.68,4.03C322.73,299.3,322.16,299.42,321.59,299.42z"/>
</svg>
