<svg width="460" height="460" viewBox="0 0 400 136" fill="none" xmlns="http://www.w3.org/2000/svg">
<path d="M26.8 56.6201C24.8 56.6201 22.9333 56.9534 21.2 57.6201C19.5333 58.2867 18.0667 59.2534 16.8 60.5201C15.6 61.7867 14.6333 63.3534 13.9 65.2201C13.1667 67.0867 12.8 69.2534 12.8 71.7201C12.8 76.6534 14.1 80.3867 16.7 82.9201C19.3 85.3867 22.6667 86.6201 26.8 86.6201C29.1333 86.6201 31.1333 86.3201 32.8 85.7201C34.5333 85.0534 36.0667 84.3534 37.4 83.6201C38.3333 84.2867 39.0667 85.0534 39.6 85.9201C40.2 86.7867 40.5 87.7867 40.5 88.9201C40.5 91.1867 39.1667 93.0534 36.5 94.5201C33.8333 95.9867 30.2333 96.7201 25.7 96.7201C21.9 96.7201 18.4 96.2201 15.2 95.2201C12.0667 94.1534 9.36667 92.5867 7.1 90.5201C4.83333 88.3867 3.06667 85.7534 1.8 82.6201C0.6 79.4867 0 75.8534 0 71.7201C0 67.5201 0.666666 63.8534 2 60.7201C3.33333 57.5201 5.13333 54.8867 7.4 52.8201C9.73333 50.6867 12.4333 49.1201 15.5 48.1201C18.5667 47.0534 21.8333 46.5201 25.3 46.5201C29.7667 46.5201 33.3333 47.3201 36 48.9201C38.6667 50.4534 40 52.3534 40 54.6201C40 55.6867 39.7 56.6534 39.1 57.5201C38.5667 58.3867 37.9333 59.0867 37.2 59.6201C35.8667 58.8867 34.3667 58.2201 32.7 57.6201C31.1 56.9534 29.1333 56.6201 26.8 56.6201Z" fill="#233A5E"/>
<path d="M48.2375 48.3201C48.7708 48.1867 49.5375 48.0201 50.5375 47.8201C51.6042 47.6201 52.7375 47.5201 53.9375 47.5201C56.3375 47.5201 58.0708 47.9534 59.1375 48.8201C60.2708 49.6867 60.8375 51.2201 60.8375 53.4201V95.2201C60.3042 95.3534 59.5042 95.5201 58.4375 95.7201C57.4375 95.9201 56.3375 96.0201 55.1375 96.0201C52.7375 96.0201 50.9708 95.5867 49.8375 94.7201C48.7708 93.8534 48.2375 92.3201 48.2375 90.1201V48.3201ZM47.2375 33.8201C47.2375 31.8867 47.9042 30.2534 49.2375 28.9201C50.6375 27.5201 52.4042 26.8201 54.5375 26.8201C56.6708 26.8201 58.4042 27.5201 59.7375 28.9201C61.0708 30.2534 61.7375 31.8867 61.7375 33.8201C61.7375 35.8201 61.0708 37.5201 59.7375 38.9201C58.4042 40.2534 56.6708 40.9201 54.5375 40.9201C52.4042 40.9201 50.6375 40.2534 49.2375 38.9201C47.9042 37.5201 47.2375 35.8201 47.2375 33.8201Z" fill="#233A5E"/>
<path d="M83.6094 95.2201C83.0094 95.3534 82.2094 95.5201 81.2094 95.7201C80.2094 95.9201 79.076 96.0201 77.8094 96.0201C75.476 96.0201 73.7427 95.5867 72.6094 94.7201C71.476 93.8534 70.9094 92.3201 70.9094 90.1201V58.4201C70.9094 56.6867 71.3094 55.2201 72.1094 54.0201C72.9094 52.8201 74.076 51.7534 75.6094 50.8201C77.676 49.5534 80.2094 48.5201 83.2094 47.7201C86.276 46.9201 89.576 46.5201 93.1094 46.5201C99.4427 46.5201 102.609 48.4867 102.609 52.4201C102.609 53.3534 102.443 54.2534 102.109 55.1201C101.843 55.9201 101.543 56.5867 101.209 57.1201C99.676 56.7867 97.776 56.6201 95.5094 56.6201C93.176 56.6201 90.976 56.8867 88.9094 57.4201C86.8427 57.9534 85.076 58.6201 83.6094 59.4201V95.2201Z" fill="#233A5E"/>
<path d="M130.691 56.6201C128.691 56.6201 126.824 56.9534 125.091 57.6201C123.424 58.2867 121.957 59.2534 120.691 60.5201C119.491 61.7867 118.524 63.3534 117.791 65.2201C117.057 67.0867 116.691 69.2534 116.691 71.7201C116.691 76.6534 117.991 80.3867 120.591 82.9201C123.191 85.3867 126.557 86.6201 130.691 86.6201C133.024 86.6201 135.024 86.3201 136.691 85.7201C138.424 85.0534 139.957 84.3534 141.291 83.6201C142.224 84.2867 142.957 85.0534 143.491 85.9201C144.091 86.7867 144.391 87.7867 144.391 88.9201C144.391 91.1867 143.057 93.0534 140.391 94.5201C137.724 95.9867 134.124 96.7201 129.591 96.7201C125.791 96.7201 122.291 96.2201 119.091 95.2201C115.957 94.1534 113.257 92.5867 110.991 90.5201C108.724 88.3867 106.957 85.7534 105.691 82.6201C104.491 79.4867 103.891 75.8534 103.891 71.7201C103.891 67.5201 104.557 63.8534 105.891 60.7201C107.224 57.5201 109.024 54.8867 111.291 52.8201C113.624 50.6867 116.324 49.1201 119.391 48.1201C122.457 47.0534 125.724 46.5201 129.191 46.5201C133.657 46.5201 137.224 47.3201 139.891 48.9201C142.557 50.4534 143.891 52.3534 143.891 54.6201C143.891 55.6867 143.591 56.6534 142.991 57.5201C142.457 58.3867 141.824 59.0867 141.091 59.6201C139.757 58.8867 138.257 58.2201 136.591 57.6201C134.991 56.9534 133.024 56.6201 130.691 56.6201Z" fill="#233A5E"/>
<path d="M195.628 86.0201C195.628 87.5534 195.361 88.8534 194.828 89.9201C194.295 90.9201 193.328 91.8201 191.928 92.6201C189.995 93.8201 187.528 94.8201 184.528 95.6201C181.595 96.4201 178.228 96.8201 174.428 96.8201C170.961 96.8201 167.828 96.4201 165.028 95.6201C162.228 94.8867 159.828 93.7201 157.828 92.1201C155.828 90.5201 154.295 88.4867 153.228 86.0201C152.161 83.5534 151.628 80.6201 151.628 77.2201V48.1201C152.161 47.9201 152.928 47.7534 153.928 47.6201C154.995 47.4201 156.161 47.3201 157.428 47.3201C159.761 47.3201 161.495 47.7534 162.628 48.6201C163.761 49.4201 164.328 50.9534 164.328 53.2201V77.0201C164.328 80.4867 165.195 82.9867 166.928 84.5201C168.728 85.9867 171.261 86.7201 174.528 86.7201C176.595 86.7201 178.328 86.5201 179.728 86.1201C181.195 85.7201 182.295 85.2867 183.028 84.8201V48.1201C183.561 47.9201 184.328 47.7534 185.328 47.6201C186.395 47.4201 187.528 47.3201 188.728 47.3201C191.128 47.3201 192.861 47.7534 193.928 48.6201C195.061 49.4201 195.628 50.9534 195.628 53.2201V86.0201Z" fill="#233A5E"/>
<path d="M218.569 95.2201C218.035 95.3534 217.235 95.5201 216.169 95.7201C215.169 95.9201 214.069 96.0201 212.869 96.0201C210.469 96.0201 208.702 95.5867 207.569 94.7201C206.502 93.8534 205.969 92.3201 205.969 90.1201V30.3201C206.502 30.1201 207.269 29.9534 208.269 29.8201C209.335 29.6201 210.469 29.5201 211.669 29.5201C214.069 29.5201 215.802 29.9534 216.869 30.8201C218.002 31.6867 218.569 33.2201 218.569 35.4201V95.2201Z" fill="#233A5E"/>
<path d="M247.531 87.2201C249.465 87.2201 251.231 87.0534 252.831 86.7201C254.431 86.3201 255.598 85.8534 256.331 85.3201V74.2201L246.631 75.1201C243.965 75.3867 241.931 75.9867 240.531 76.9201C239.131 77.7867 238.431 79.1867 238.431 81.1201C238.431 83.0534 239.131 84.5534 240.531 85.6201C241.998 86.6867 244.331 87.2201 247.531 87.2201ZM247.131 46.5201C253.665 46.5201 258.865 47.9201 262.731 50.7201C266.665 53.5201 268.631 57.8534 268.631 63.7201V86.8201C268.631 88.4201 268.231 89.6867 267.431 90.6201C266.631 91.5534 265.631 92.3867 264.431 93.1201C262.565 94.2534 260.198 95.1534 257.331 95.8201C254.465 96.4867 251.198 96.8201 247.531 96.8201C240.865 96.8201 235.598 95.5534 231.731 93.0201C227.931 90.4201 226.031 86.5534 226.031 81.4201C226.031 76.9534 227.431 73.5534 230.231 71.2201C233.098 68.8201 237.231 67.3534 242.631 66.8201L256.331 65.4201V63.6201C256.331 61.0867 255.398 59.2201 253.531 58.0201C251.731 56.8201 249.165 56.2201 245.831 56.2201C243.231 56.2201 240.698 56.5534 238.231 57.2201C235.765 57.8201 233.565 58.5867 231.631 59.5201C230.898 58.9867 230.265 58.2867 229.731 57.4201C229.265 56.4867 229.031 55.4867 229.031 54.4201C229.031 53.0867 229.331 52.0201 229.931 51.2201C230.598 50.3534 231.631 49.5867 233.031 48.9201C234.965 48.1201 237.165 47.5201 239.631 47.1201C242.098 46.7201 244.598 46.5201 247.131 46.5201Z" fill="#233A5E"/>
<path d="M290.777 95.2201C290.177 95.3534 289.377 95.5201 288.377 95.7201C287.377 95.9201 286.244 96.0201 284.977 96.0201C282.644 96.0201 280.911 95.5867 279.777 94.7201C278.644 93.8534 278.077 92.3201 278.077 90.1201V58.4201C278.077 56.6867 278.477 55.2201 279.277 54.0201C280.077 52.8201 281.244 51.7534 282.777 50.8201C284.844 49.5534 287.377 48.5201 290.377 47.7201C293.444 46.9201 296.744 46.5201 300.277 46.5201C306.611 46.5201 309.777 48.4867 309.777 52.4201C309.777 53.3534 309.611 54.2534 309.277 55.1201C309.011 55.9201 308.711 56.5867 308.377 57.1201C306.844 56.7867 304.944 56.6201 302.677 56.6201C300.344 56.6201 298.144 56.8867 296.077 57.4201C294.011 57.9534 292.244 58.6201 290.777 59.4201V95.2201Z" fill="#233A5E"/>
<path d="M355.88 67.2401C359.827 77.8001 361.8 87.9334 361.8 97.64C361.8 107.453 360.68 114.067 358.44 117.48C357.267 119.72 354.173 121.48 349.16 122.76C347.347 123.293 345.853 123.56 344.68 123.56C343.4 123.56 342.76 123.08 342.76 122.12C342.76 121.587 342.973 120.947 343.4 120.2C346.173 115.933 347.56 109.64 347.56 101.32C347.56 93.1067 346.813 85.4267 345.32 78.2801C307.24 116.467 275.72 135.56 250.76 135.56C249.587 135.56 249 135.347 249 134.92C249 134.493 249.16 134.28 249.48 134.28C249.8 134.28 250.067 134.28 250.28 134.28C263.08 134.28 282.173 124.093 307.56 103.72C319.293 94.4401 331.4 83.8267 343.88 71.88C341.213 61.64 337.747 52.4134 333.48 44.2001C329.213 35.9867 325 30.76 320.84 28.52C318.6 27.24 316.733 26.6 315.24 26.6C310.547 26.6 307.293 27.6667 305.48 29.8C305.267 30.0134 305.053 30.12 304.84 30.12C304.52 30.12 304.307 29.9601 304.2 29.6401C304.093 29.4267 304.147 29.16 304.36 28.84C306.707 25.8534 310.973 24.36 317.16 24.36C323.347 24.36 329.8 27.9334 336.52 35.08C343.24 42.2267 349 51.2401 353.8 62.1201C373.747 42.4934 387.987 26.8134 396.52 15.08C397.48 13.6934 398.227 13 398.76 13C399.4 13 399.72 13.2667 399.72 13.8C399.72 14.3334 399.293 15.1867 398.44 16.36C385.853 33.32 371.667 50.2801 355.88 67.2401Z" fill="#69D081"/>
</svg>
