<?xml version="1.0" encoding="utf-8"?>
<!-- Generator: Adobe Illustrator 23.0.1, SVG Export Plug-In . SVG Version: 6.00 Build 0)  -->
<svg version="1.1" id="Calque_1" xmlns="http://www.w3.org/2000/svg" xmlns:xlink="http://www.w3.org/1999/xlink" x="0px" y="0px"
	 viewBox="0 0 595.28 841.89" style="enable-background:new 0 0 595.28 841.89;" xml:space="preserve">
<style type="text/css">
	.st0{fill:#FFFFFF;}
</style>
<path class="st0" d="M290.56,473.38c-1.66,0-3.16-0.92-3.9-2.4l-29.84-59.4l-59.4-29.84c-1.48-0.75-2.4-2.24-2.4-3.9
	c0-1.66,0.92-3.16,2.4-3.9l59.4-29.84l29.84-59.39c0.75-1.48,2.24-2.41,3.9-2.41s3.15,0.92,3.9,2.41l29.84,59.39l59.4,29.84
	c1.48,0.74,2.4,2.24,2.4,3.9c0,1.66-0.92,3.15-2.4,3.9l-59.39,29.84l-29.84,59.39C293.72,472.46,292.22,473.38,290.56,473.38z
	 M264.36,348.53l-0.06,0.18c-0.22,0.64-0.59,1.23-1.06,1.69c-0.54,0.56-1.14,0.95-1.8,1.17l-0.18,0.06l-52.14,26.2l52.15,26.2
	l0.18,0.06c0.65,0.22,1.25,0.6,1.73,1.1c0.54,0.53,0.91,1.12,1.13,1.77l0.06,0.18l26.2,52.15l26.2-52.15l0.06-0.18
	c0.22-0.65,0.6-1.25,1.09-1.72c0.53-0.54,1.13-0.92,1.78-1.14l0.18-0.06l52.15-26.2l-52.14-26.2l-0.18-0.06
	c-0.66-0.23-1.25-0.61-1.73-1.1c-0.55-0.54-0.92-1.12-1.14-1.76l-0.06-0.18l-26.2-52.15L264.36,348.53z M290.56,398.01
	c-11.13,0-20.18-9.05-20.18-20.17c0-11.12,9.05-20.17,20.18-20.17c11.12,0,20.17,9.05,20.17,20.17
	C310.73,388.96,301.68,398.01,290.56,398.01z M290.56,366.39c-6.31,0-11.44,5.13-11.44,11.44c0,6.31,5.13,11.44,11.44,11.44
	c6.31,0,11.44-5.13,11.44-11.44C302,371.52,296.87,366.39,290.56,366.39z"/>
</svg>
